<?xml version="1.0" encoding="utf-8"?>
<!-- Generator: Adobe Illustrator 22.0.1, SVG Export Plug-In . SVG Version: 6.00 Build 0)  -->
<svg version="1.1" id="Layer_1" xmlns="http://www.w3.org/2000/svg" width="55" xmlns:xlink="http://www.w3.org/1999/xlink" x="0px" y="0px"
	 viewBox="0 0 26 43.5" style="enable-background:new 0 0 26 43.5;" xml:space="preserve">
<style type="text/css">
	.st0{fill:#FFFFFF;}
</style>
<g>
	<g transform="translate(-677.000000, -176.000000)">
		<g transform="translate(677.000000, 176.000000)">
			<path class="st0" d="M18.2,10.5v13.5c0,0-0.2,0.4-0.3,0.6c-0.4,0.6-0.8,1.3-1.3,1.9C15.3,28.1,14.1,29,13,29s-2.3-0.9-3.6-2.5
				c-0.5-0.6-0.9-1.2-1.3-1.9c-0.1-0.2-0.3-0.6-0.3-0.6V10.5H18.2z M5.5,9.4v15c0,0.2,0,0.4,0.1,0.5c0.1,0.2,0.3,0.5,0.5,1
				c0.4,0.7,0.9,1.4,1.5,2.1C9.3,30,11,31.3,13,31.3s3.7-1.3,5.4-3.3c0.5-0.7,1-1.4,1.5-2.1c0.3-0.4,0.4-0.8,0.5-1
				c0.1-0.2,0.1-0.3,0.1-0.5v-15c0-0.6-0.5-1.2-1.2-1.2H6.7C6,8.2,5.5,8.7,5.5,9.4z"/>
			<path class="st0" d="M14.2,17.4h4.6c0.6,0,1.2,0.5,1.2,1.2c0,0.6-0.5,1.2-1.2,1.2h-4.6v9.8c0,0.6-0.5,1.2-1.2,1.2
				s-1.2-0.5-1.2-1.2v-9.8H7.2c-0.6,0-1.2-0.5-1.2-1.2c0-0.6,0.5-1.2,1.2-1.2h4.6V9.9c0-0.6,0.5-1.2,1.2-1.2s1.2,0.5,1.2,1.2V17.4
				L14.2,17.4z"/>
			<path class="st0" d="M14.2,4.7c0-0.6-0.5-1.2-1.2-1.2s-1.2,0.5-1.2,1.2v1.2C11.8,6.5,12.4,7,13,7s1.2-0.5,1.2-1.2V4.7z"/>
			<path class="st0" d="M14.2,33.6c0-0.6-0.5-1.2-1.2-1.2s-1.2,0.5-1.2,1.2v6.9c0,0.6,0.5,1.2,1.2,1.2s1.2-0.5,1.2-1.2V33.6z"/>
		</g>
	</g>
</g>
</svg>
